<?xml version="1.0" standalone="no"?>
<!DOCTYPE svg PUBLIC "-//W3C//DTD SVG 20010904//EN"
 "http://www.w3.org/TR/2001/REC-SVG-20010904/DTD/svg10.dtd">
<svg version="1.0" xmlns="http://www.w3.org/2000/svg"
 width="200.000000pt" height="200.000000pt" viewBox="0 0 200.000000 200.000000"
 preserveAspectRatio="xMidYMid meet">
<metadata>
Created by potrace 1.11, written by Peter Selinger 2001-2013
</metadata>
<g transform="translate(0.000000,200.000000) scale(0.100000,-0.100000)"
fill="#000000" stroke="none">
<path d="M820 1978 c-26 -28 -26 -58 1 -92 40 -50 119 -21 119 44 0 63 -77 94
-120 48z m80 -18 c0 -5 -4 -10 -10 -10 -5 0 -10 5 -10 10 0 6 5 10 10 10 6 0
10 -4 10 -10z"/>
<path d="M1242 1973 c-41 -16 -32 -83 11 -83 29 0 47 18 47 47 0 18 -28 46
-42 42 -2 0 -9 -3 -16 -6z m38 -23 c0 -5 -4 -10 -10 -10 -5 0 -10 5 -10 10 0
6 5 10 10 10 6 0 10 -4 10 -10z"/>
<path d="M1102 1738 c-28 -28 -7 -78 33 -78 12 0 26 5 33 12 7 7 12 21 12 33
0 12 -5 26 -12 33 -7 7 -21 12 -33 12 -12 0 -26 -5 -33 -12z m58 -18 c0 -5 -4
-10 -10 -10 -5 0 -10 5 -10 10 0 6 5 10 10 10 6 0 10 -4 10 -10z"/>
<path d="M870 1675 c-16 -19 -9 -45 16 -62 19 -12 24 -11 45 6 21 16 22 22 11
45 -13 29 -52 36 -72 11z"/>
<path d="M1239 1592 c-31 -26 -31 -78 0 -104 34 -27 75 -23 100 8 27 35 26 59
-4 89 -29 30 -64 32 -96 7z m76 -22 c3 -5 -1 -10 -10 -10 -9 0 -13 5 -10 10 3
6 8 10 10 10 2 0 7 -4 10 -10z"/>
<path d="M773 1420 c-43 -17 -56 -73 -25 -108 28 -34 65 -37 97 -10 37 32 37
74 1 105 -29 25 -39 27 -73 13z m53 -47 c-10 -10 -19 5 -10 18 6 11 8 11 12 0
2 -7 1 -15 -2 -18z"/>
<path d="M1097 1382 c-25 -28 -22 -69 8 -88 31 -20 53 -15 78 19 l21 27 -21
28 c-25 33 -63 40 -86 14z m63 -22 c0 -5 -2 -10 -4 -10 -3 0 -8 5 -11 10 -3 6
-1 10 4 10 6 0 11 -4 11 -10z"/>
<path d="M976 1168 c-35 -49 -1 -118 56 -118 31 0 68 41 68 75 0 56 -93 88
-124 43z m84 -18 c0 -5 -4 -10 -10 -10 -5 0 -10 5 -10 10 0 6 5 10 10 10 6 0
10 -4 10 -10z"/>
<path d="M344 968 c-246 -248 -259 -269 -252 -397 8 -177 139 -304 313 -304
123 0 152 19 389 260 l206 208 212 -211 c248 -246 268 -259 397 -252 122 6
221 70 273 177 34 68 37 178 7 256 -19 52 -40 78 -163 201 -78 77 -174 172
-214 209 l-73 69 -219 -219 -220 -220 -218 218 c-119 119 -220 217 -222 217
-3 0 -100 -96 -216 -212z m399 -56 l177 -178 -182 -180 c-104 -102 -200 -189
-223 -200 -29 -14 -61 -19 -115 -19 -64 0 -82 4 -123 28 -112 66 -158 216
-101 330 14 28 371 397 384 397 3 0 85 -80 183 -178z"/>
<path d="M90 61 c0 -54 2 -61 20 -61 13 0 20 7 20 19 0 12 8 21 21 23 12 2 27
11 33 21 18 28 -4 52 -53 55 l-41 3 0 -60z m70 19 c0 -5 -7 -10 -15 -10 -8 0
-15 5 -15 10 0 6 7 10 15 10 8 0 15 -4 15 -10z"/>
<path d="M200 61 c0 -48 3 -61 15 -61 8 0 15 9 15 20 0 13 7 20 20 20 13 0 20
-7 20 -20 0 -11 7 -20 15 -20 11 0 14 12 12 57 l-2 58 -47 3 -48 3 0 -60z m70
19 c0 -5 -9 -10 -20 -10 -11 0 -20 5 -20 10 0 6 9 10 20 10 11 0 20 -4 20 -10z"/>
<path d="M320 60 l0 -60 45 0 c28 0 45 4 45 12 0 9 3 9 12 0 18 -18 75 -15 86
5 9 16 11 16 27 0 19 -20 66 -22 83 -5 17 17 15 38 -3 38 -8 0 -15 -5 -15 -11
0 -21 -45 -4 -48 19 -4 27 23 40 50 23 24 -15 36 -6 22 17 -26 42 -104 16
-104 -35 0 -23 0 -23 -20 -3 -11 11 -27 20 -35 20 -8 0 -15 5 -15 10 0 13 6
13 30 -2 22 -14 35 -6 26 17 -4 12 -16 15 -43 13 -33 -3 -38 -7 -41 -30 -3
-22 2 -28 34 -38 25 -8 32 -15 24 -20 -8 -5 -23 -2 -36 6 -15 10 -24 12 -29 5
-8 -14 -65 -14 -65 -1 0 6 11 10 25 10 34 0 32 28 -2 33 -26 4 -26 4 5 6 21 0
32 6 32 16 0 11 -12 15 -45 15 l-45 0 0 -60z"/>
<path d="M640 60 c0 -53 2 -60 20 -60 13 0 20 7 20 20 0 11 7 20 15 20 8 0 15
-9 15 -20 0 -13 7 -20 20 -20 23 0 23 1 11 33 -5 13 -5 30 -1 37 17 28 -8 50
-55 50 l-45 0 0 -60z m70 20 c0 -5 -7 -10 -15 -10 -8 0 -15 5 -15 10 0 6 7 10
15 10 8 0 15 -4 15 -10z"/>
<path d="M760 60 c0 -47 3 -60 15 -60 12 0 15 13 15 60 0 47 -3 60 -15 60 -12
0 -15 -13 -15 -60z"/>
<path d="M810 59 c0 -46 3 -59 15 -59 8 0 15 9 15 20 0 13 7 20 19 20 24 0 54
28 47 45 -3 8 2 11 15 8 15 -4 19 -14 19 -49 0 -32 4 -44 15 -44 11 0 15 12
15 45 0 33 4 45 15 45 8 0 15 7 15 15 0 12 -18 14 -95 14 l-95 0 0 -60z m60
21 c0 -5 -7 -10 -15 -10 -8 0 -15 5 -15 10 0 6 7 10 15 10 8 0 15 -4 15 -10z"/>
<path d="M1010 60 c0 -52 2 -61 17 -58 14 2 17 14 17 58 0 44 -3 56 -17 58
-15 3 -17 -6 -17 -58z"/>
<path d="M1066 98 c-32 -45 -6 -98 48 -98 17 0 37 5 44 12 16 16 16 80 0 96
-21 21 -75 15 -92 -10z m69 -38 c0 -18 -6 -26 -22 -28 -20 -3 -23 1 -23 28 0
27 3 31 23 28 16 -2 22 -10 22 -28z"/>
<path d="M1180 59 c0 -52 2 -60 18 -57 12 3 16 12 15 33 l-2 30 19 -25 c11
-14 20 -28 20 -32 0 -5 9 -8 20 -8 18 0 20 7 20 60 0 45 -3 60 -14 60 -9 0
-16 -12 -18 -32 l-3 -33 -20 33 c-10 17 -27 32 -37 32 -15 0 -18 -9 -18 -61z"/>
<path d="M1350 60 c0 -47 3 -60 15 -60 9 0 15 9 15 25 0 20 5 25 25 25 14 0
25 5 25 10 0 6 -11 10 -25 10 -14 0 -25 5 -25 10 0 6 11 10 25 10 16 0 25 6
25 15 0 11 -11 15 -40 15 l-40 0 0 -60z"/>
<path d="M1440 60 c0 -53 2 -61 18 -58 14 3 17 14 17 58 0 44 -3 55 -17 58
-16 3 -18 -5 -18 -58z"/>
<path d="M1490 60 l0 -60 44 0 c26 0 46 5 49 13 4 9 6 9 6 0 1 -20 81 -17 81
2 0 9 -9 15 -25 15 -23 0 -25 4 -25 45 0 38 -3 45 -20 45 -17 0 -20 -7 -20
-45 0 -43 -1 -45 -30 -45 -29 0 -30 2 -30 45 0 33 -4 45 -15 45 -12 0 -15 -13
-15 -60z"/>
<path d="M1680 60 l0 -60 45 0 c33 0 45 4 45 15 0 10 -10 15 -30 15 -16 0 -30
5 -30 10 0 6 14 10 31 10 39 0 34 22 -7 31 l-29 7 33 1 c21 1 32 6 32 16 0 11
-12 15 -45 15 l-45 0 0 -60z"/>
<path d="M1780 60 c0 -53 2 -60 20 -60 13 0 20 7 20 20 0 26 26 26 33 0 3 -11
12 -20 21 -20 18 0 21 17 7 39 -6 9 -5 21 2 32 17 28 -8 49 -59 49 l-44 0 0
-60z m70 20 c0 -5 -9 -10 -21 -10 -11 0 -17 5 -14 10 3 6 13 10 21 10 8 0 14
-4 14 -10z"/>
</g>
</svg>
